<svg width="25" height="24" viewBox="0 0 25 24" fill="none" xmlns="http://www.w3.org/2000/svg">
<g id="gg:chart">
<g id="Group">
<path id="Vector" fill-rule="evenodd" clip-rule="evenodd" d="M23.275 8C23.4245 8.65616 23.5 9.32702 23.5 10H14.5V1C16.5394 0.999992 18.5183 1.6926 20.1125 2.96437C21.7068 4.23613 22.8218 6.01163 23.275 8ZM21.208 8C20.8759 6.88601 20.2716 5.87227 19.4497 5.05031C18.6277 4.22835 17.614 3.62406 16.5 3.292V8H21.208Z" fill="#CCCCCC"/>
<path id="Vector_2" fill-rule="evenodd" clip-rule="evenodd" d="M1.5 14C1.49999 12.6482 1.80452 11.3137 2.39097 10.0957C2.97742 8.87764 3.83072 7.80737 4.8875 6.96435C5.94428 6.12132 7.1774 5.52719 8.49529 5.22607C9.81317 4.92496 11.182 4.92459 12.5 5.225V12H19.275C19.5565 13.2351 19.5741 14.5158 19.3266 15.7581C19.0791 17.0005 18.5721 18.1767 17.8388 19.2096C17.1055 20.2426 16.1624 21.1091 15.0712 21.7526C13.9799 22.396 12.7652 22.8018 11.5063 22.9434C10.2475 23.0851 8.97289 22.9593 7.76596 22.5745C6.55903 22.1897 5.44694 21.5544 4.50242 20.7102C3.55791 19.866 2.80224 18.832 2.28486 17.6756C1.76747 16.5193 1.50002 15.2668 1.5 14ZM17.303 14H10.5V7.196C9.15425 7.1958 7.83867 7.59468 6.71963 8.34219C5.60058 9.0897 4.72834 10.1523 4.21321 11.3955C3.69808 12.6388 3.56319 14.0069 3.82561 15.3268C4.08804 16.6467 4.73598 17.8591 5.68749 18.8108C6.63901 19.7625 7.85136 20.4106 9.17124 20.6732C10.4911 20.9358 11.8592 20.8011 13.1025 20.2862C14.3459 19.7712 15.4086 18.8991 16.1562 17.7802C16.9039 16.6613 17.303 15.3457 17.303 14Z" fill="#CCCCCC"/>
</g>
</g>
</svg>
